# xmcd
#
# Track frame offsets:
#	150
#	16413
#	34976
#	54061
#	69883
#	95736
#
# Disc length: 1771 seconds
#
# Revision: 2
# Processed by: cddbd v1.5.2PL0 Copyright (c) Steve Scherf et al.
# Submitted via: audiograbber 1.83.01
#
DISCID=4306e906
DTITLE=Michael Wendler - Maxi CD - Echolot (LC 00116)
DYEAR=2008
DGENRE=Deutsch
TTITLE0=Echolot (Playa Mix Version)
TTITLE1=Echolot (Dance Mix Version)
TTITLE2=Echolot (YoYoYo DJ-Mix Version)
TTITLE3=Echolot (Album Mix Version)
TTITLE4=Nina (Radio Soft Mix Version)
TTITLE5=Daten-Track - Video Echolot
EXTD=
EXTT0=
EXTT1=
EXTT2=
EXTT3=
EXTT4=
EXTT5=
PLAYORDER=
